<svg width="24" height="24" viewBox="0 0 24 24" fill="none" xmlns="http://www.w3.org/2000/svg">
<path fill-rule="evenodd" clip-rule="evenodd" d="M11.1846 1.63824C11.6318 1.41469 12.1464 1.38659 12.6104 1.55426L12.8057 1.63824L12.8115 1.64215C13.3798 1.93304 13.8565 2.42676 14.1885 2.96344C14.5201 3.49971 14.7499 4.14806 14.75 4.78961V7.62652L20.1875 9.97027C20.6624 10.1712 21.0463 10.5428 21.3096 10.9439C21.574 11.347 21.7596 11.8482 21.7598 12.3589V13.649C21.7598 14.2544 21.5257 14.8372 21.0098 15.1754C20.4948 15.5127 19.8681 15.4956 19.3145 15.2584H19.3125L14.75 13.2877V15.7593C14.75 15.7498 14.749 15.7562 14.7539 15.7779C14.7587 15.7986 14.767 15.8249 14.7783 15.8521C14.7897 15.8793 14.8025 15.9019 14.8125 15.9175C14.8217 15.9319 14.8247 15.9337 14.8184 15.9273C14.8228 15.9315 14.8277 15.9357 14.832 15.94L17.1006 18.2193L17.1865 18.313C17.3773 18.54 17.4932 18.8132 17.5518 19.064C17.6179 19.3477 17.6304 19.6905 17.5215 20.0142L17.082 21.3453L17.0791 21.3541C16.7331 22.357 15.5853 22.8352 14.6348 22.3599C14.5821 22.3336 14.5324 22.3012 14.4873 22.2632L12.1572 20.3033L12.1523 20.2984C12.0833 20.2395 11.918 20.2397 11.8486 20.2984L11.8428 20.3033L9.5127 22.2632C9.46902 22.3 9.42096 22.3321 9.37012 22.358C8.41304 22.8449 7.25322 22.3628 6.92871 21.3443L6.92773 21.3453L6.48828 20.0162C6.38014 19.6911 6.39113 19.348 6.45898 19.0591C6.52677 18.7708 6.66966 18.4598 6.91016 18.2193L9.17871 15.94L9.17969 15.939C9.18137 15.9366 9.1832 15.9331 9.18555 15.9293C9.19643 15.9116 9.20888 15.886 9.2207 15.857C9.23241 15.8282 9.24118 15.8006 9.24609 15.7789C9.25114 15.7563 9.25003 15.7499 9.25 15.7593V13.2877L4.6875 15.2584H4.68555C4.13184 15.4957 3.5052 15.5127 2.99023 15.1754C2.47442 14.8372 2.24023 14.2543 2.24023 13.649V12.3589C2.24042 11.8483 2.42615 11.3467 2.69141 10.9439C2.95315 10.5467 3.33733 10.1788 3.8125 9.98199L9.24023 7.63629V4.79937C9.24032 4.15836 9.47076 3.50853 9.80176 2.97027C10.133 2.43182 10.6088 1.93389 11.1787 1.64215L11.1846 1.63824ZM12.1328 2.97906C12.0458 2.93636 11.9465 2.93598 11.8594 2.97808C11.5902 3.11666 11.3022 3.39377 11.0791 3.75641C10.8554 4.12031 10.7403 4.50065 10.7402 4.79937V7.79937C10.7402 8.07094 10.6405 8.30957 10.5273 8.48199C10.4145 8.65377 10.2366 8.83939 9.99121 8.94684L9.9873 8.94781L4.40723 11.358C4.40178 11.3603 4.39613 11.3626 4.39062 11.3648C4.25432 11.4198 4.08427 11.5568 3.94434 11.7691C3.80495 11.9808 3.74044 12.1999 3.74023 12.3589V13.649C3.74023 13.7659 3.76194 13.8385 3.7793 13.8755C3.79504 13.909 3.8092 13.9183 3.8125 13.9205C3.81528 13.9223 3.83034 13.9319 3.87012 13.9332C3.91207 13.9344 3.98636 13.9258 4.09277 13.8804L9.00293 11.7613C9.36794 11.6009 9.81864 11.5785 10.2041 11.8316C10.5909 12.0857 10.7499 12.5112 10.75 12.9097V15.7593C10.75 15.9987 10.6864 16.2344 10.6094 16.4234C10.5329 16.6109 10.4126 16.8257 10.2412 16.9976L7.97168 19.2789L7.9707 19.2798C7.96867 19.2824 7.96125 19.2916 7.95215 19.3091C7.93978 19.3331 7.92759 19.3653 7.91895 19.4019C7.91034 19.4386 7.90685 19.4735 7.90723 19.5015L7.91211 19.5425L8.35254 20.8736L8.35645 20.8873C8.39245 21.003 8.51404 21.0719 8.63672 21.0406L10.877 19.1558C11.5063 18.6208 12.4936 18.621 13.123 19.1558L15.3594 21.0367C15.4789 21.0642 15.6142 21.0008 15.6611 20.8648L16.0986 19.5435L16.1006 19.5357C16.1013 19.5312 16.1023 19.5208 16.1025 19.5054C16.1029 19.4781 16.0997 19.4429 16.0908 19.4048C16.0819 19.3667 16.0694 19.3331 16.0566 19.3082C16.0436 19.2828 16.0357 19.2754 16.04 19.2798L16.0391 19.2789L13.7686 16.9986L13.7695 16.9966C13.5945 16.8255 13.4719 16.6145 13.3945 16.4293C13.3141 16.2365 13.25 15.9993 13.25 15.7593V12.9097C13.2501 12.5176 13.4026 12.0893 13.7939 11.8336C14.1328 11.6124 14.5185 11.6068 14.8477 11.7066L14.9854 11.7554L14.9971 11.7603L19.9072 13.8804C20.0146 13.9263 20.0888 13.9345 20.1309 13.9332C20.1698 13.9319 20.1843 13.9225 20.1875 13.9205C20.1905 13.9185 20.2048 13.9093 20.2207 13.8755C20.2381 13.8385 20.2598 13.7659 20.2598 13.649V12.3589C20.2596 12.2001 20.1958 11.9809 20.0557 11.7671C19.9152 11.5531 19.7424 11.4107 19.6006 11.3511L19.5928 11.3482L14.0029 8.93805L14 8.93609C13.7545 8.82866 13.5757 8.64405 13.4629 8.47223C13.3498 8.29985 13.2501 8.06111 13.25 7.78961V4.78961C13.2499 4.49134 13.1353 4.11348 12.9121 3.7525C12.6903 3.39387 12.4031 3.11877 12.1328 2.97906Z" fill="black"/>
</svg>
