<svg width="24" height="24" viewBox="0 0 24 24" fill="none" xmlns="http://www.w3.org/2000/svg">
<path fill-rule="evenodd" clip-rule="evenodd" d="M10.5866 1.41436C11.3676 0.633533 12.6337 0.63352 13.4147 1.41436L22.5866 10.5862C23.3671 11.3673 23.3673 12.6335 22.5866 13.4144L13.4147 22.5862L13.2633 22.723C12.5301 23.3213 11.4713 23.3211 10.7379 22.723L10.5866 22.5862L1.41469 13.4144C0.682473 12.682 0.636955 11.5231 1.27797 10.7376L1.41469 10.5862L10.5866 1.41436ZM12.7077 2.12139C12.3172 1.73108 11.6841 1.73109 11.2936 2.12139L2.12172 11.2933C1.7314 11.6838 1.7314 12.3168 2.12172 12.7073L11.2936 21.8792C11.6841 22.2692 12.3173 22.2694 12.7077 21.8792L21.8795 12.7073C22.2697 12.3169 22.2695 11.6838 21.8795 11.2933L12.7077 2.12139Z" fill="black"/>
</svg>
