<svg width="24" height="24" viewBox="0 0 24 24" fill="none" xmlns="http://www.w3.org/2000/svg">
<path d="M6 0C6.55228 0 7 0.447715 7 1V16C7 16.5523 7.44772 17 8 17H23C23.5523 17 24 17.4477 24 18V23C24 23.5523 23.5523 24 23 24H4.5C2.01472 24 0 21.9853 0 19.5V1C0 0.447715 0.447715 2.41598e-08 1 0H6Z" fill="black"/>
<path d="M23 0C23.5523 0 24 0.447715 24 1V12C24 12.5523 23.5523 13 23 13H16C15.4477 13 15 12.5523 15 12V10C15 9.44772 14.5523 9 14 9H12C11.4477 9 11 8.55228 11 8V1C11 0.447715 11.4477 2.01331e-08 12 0H23Z" fill="black"/>
</svg>
